<?xml version="1.0" encoding="UTF-8" standalone="no"?>
<!-- Created with Inkscape (http://www.inkscape.org/) -->

<svg
   xmlns:dc="http://purl.org/dc/elements/1.1/"
   xmlns:cc="http://creativecommons.org/ns#"
   xmlns:rdf="http://www.w3.org/1999/02/22-rdf-syntax-ns#"
   xmlns:svg="http://www.w3.org/2000/svg"
   xmlns="http://www.w3.org/2000/svg"
   xmlns:sodipodi="http://sodipodi.sourceforge.net/DTD/sodipodi-0.dtd"
   xmlns:inkscape="http://www.inkscape.org/namespaces/inkscape"
   width="793.70081"
   height="800.51971"
   viewBox="0 0 168 169.44334"
   version="1.1"
   id="svg34"
   inkscape:version="0.92.2 5c3e80d, 2017-08-06"
   sodipodi:docname="memory_fragmentation.svg"
   inkscape:export-filename="/home/malkaviel/Pictures/maskerad_stack_allocator/memory_fragmentation.png"
   inkscape:export-xdpi="96"
   inkscape:export-ydpi="96">
  <defs
     id="defs28">
    <inkscape:path-effect
       effect="bspline"
       id="path-effect4879"
       is_visible="true"
       weight="33.333333"
       steps="2"
       helper_size="0"
       apply_no_weight="true"
       apply_with_weight="true"
       only_selected="false" />
    <inkscape:path-effect
       effect="bspline"
       id="path-effect4879-7"
       is_visible="true"
       weight="33.333333"
       steps="2"
       helper_size="0"
       apply_no_weight="true"
       apply_with_weight="true"
       only_selected="false" />
    <inkscape:path-effect
       effect="bspline"
       id="path-effect4879-4"
       is_visible="true"
       weight="33.333333"
       steps="2"
       helper_size="0"
       apply_no_weight="true"
       apply_with_weight="true"
       only_selected="false" />
    <inkscape:path-effect
       effect="bspline"
       id="path-effect4879-6"
       is_visible="true"
       weight="33.333333"
       steps="2"
       helper_size="0"
       apply_no_weight="true"
       apply_with_weight="true"
       only_selected="false" />
    <inkscape:path-effect
       effect="bspline"
       id="path-effect4879-9"
       is_visible="true"
       weight="33.333333"
       steps="2"
       helper_size="0"
       apply_no_weight="true"
       apply_with_weight="true"
       only_selected="false" />
    <inkscape:path-effect
       effect="bspline"
       id="path-effect4879-1"
       is_visible="true"
       weight="33.333333"
       steps="2"
       helper_size="0"
       apply_no_weight="true"
       apply_with_weight="true"
       only_selected="false" />
    <inkscape:path-effect
       effect="bspline"
       id="path-effect4879-11"
       is_visible="true"
       weight="33.333333"
       steps="2"
       helper_size="0"
       apply_no_weight="true"
       apply_with_weight="true"
       only_selected="false" />
    <inkscape:path-effect
       effect="bspline"
       id="path-effect4879-40"
       is_visible="true"
       weight="33.333333"
       steps="2"
       helper_size="0"
       apply_no_weight="true"
       apply_with_weight="true"
       only_selected="false" />
    <inkscape:path-effect
       effect="bspline"
       id="path-effect4879-19"
       is_visible="true"
       weight="33.333333"
       steps="2"
       helper_size="0"
       apply_no_weight="true"
       apply_with_weight="true"
       only_selected="false" />
    <inkscape:path-effect
       effect="bspline"
       id="path-effect4879-93"
       is_visible="true"
       weight="33.333333"
       steps="2"
       helper_size="0"
       apply_no_weight="true"
       apply_with_weight="true"
       only_selected="false" />
    <inkscape:path-effect
       effect="bspline"
       id="path-effect4879-0"
       is_visible="true"
       weight="33.333333"
       steps="2"
       helper_size="0"
       apply_no_weight="true"
       apply_with_weight="true"
       only_selected="false" />
    <inkscape:path-effect
       effect="bspline"
       id="path-effect4879-66"
       is_visible="true"
       weight="33.333333"
       steps="2"
       helper_size="0"
       apply_no_weight="true"
       apply_with_weight="true"
       only_selected="false" />
    <inkscape:path-effect
       effect="bspline"
       id="path-effect4879-66-0"
       is_visible="true"
       weight="33.333333"
       steps="2"
       helper_size="0"
       apply_no_weight="true"
       apply_with_weight="true"
       only_selected="false" />
    <inkscape:path-effect
       effect="bspline"
       id="path-effect4879-0-0"
       is_visible="true"
       weight="33.333333"
       steps="2"
       helper_size="0"
       apply_no_weight="true"
       apply_with_weight="true"
       only_selected="false" />
    <inkscape:path-effect
       effect="bspline"
       id="path-effect4879-66-2"
       is_visible="true"
       weight="33.333333"
       steps="2"
       helper_size="0"
       apply_no_weight="true"
       apply_with_weight="true"
       only_selected="false" />
    <inkscape:path-effect
       effect="bspline"
       id="path-effect4879-0-6"
       is_visible="true"
       weight="33.333333"
       steps="2"
       helper_size="0"
       apply_no_weight="true"
       apply_with_weight="true"
       only_selected="false" />
    <inkscape:path-effect
       effect="bspline"
       id="path-effect4879-93-6"
       is_visible="true"
       weight="33.333333"
       steps="2"
       helper_size="0"
       apply_no_weight="true"
       apply_with_weight="true"
       only_selected="false" />
    <inkscape:path-effect
       effect="bspline"
       id="path-effect4879-93-6-8"
       is_visible="true"
       weight="33.333333"
       steps="2"
       helper_size="0"
       apply_no_weight="true"
       apply_with_weight="true"
       only_selected="false" />
    <inkscape:path-effect
       effect="bspline"
       id="path-effect4879-93-6-2"
       is_visible="true"
       weight="33.333333"
       steps="2"
       helper_size="0"
       apply_no_weight="true"
       apply_with_weight="true"
       only_selected="false" />
    <inkscape:path-effect
       effect="bspline"
       id="path-effect4879-93-6-29"
       is_visible="true"
       weight="33.333333"
       steps="2"
       helper_size="0"
       apply_no_weight="true"
       apply_with_weight="true"
       only_selected="false" />
  </defs>
  <sodipodi:namedview
     id="base"
     pagecolor="#ffffff"
     bordercolor="#666666"
     borderopacity="1.0"
     inkscape:pageopacity="0.0"
     inkscape:pageshadow="2"
     inkscape:zoom="0.7"
     inkscape:cx="347.64983"
     inkscape:cy="478.37129"
     inkscape:document-units="mm"
     inkscape:current-layer="layer1"
     showgrid="false"
     showguides="true"
     inkscape:window-width="1920"
     inkscape:window-height="1051"
     inkscape:window-x="1920"
     inkscape:window-y="0"
     inkscape:window-maximized="1"
     units="px">
    <inkscape:grid
       type="xygrid"
       id="grid117" />
  </sodipodi:namedview>
  <metadata
     id="metadata31">
    <rdf:RDF>
      <cc:Work
         rdf:about="">
        <dc:format>image/svg+xml</dc:format>
        <dc:type
           rdf:resource="http://purl.org/dc/dcmitype/StillImage" />
        <dc:title></dc:title>
      </cc:Work>
    </rdf:RDF>
  </metadata>
  <g
     inkscape:groupmode="layer"
     id="layer2"
     inkscape:label="Layer 2"
     transform="translate(0,-68.156669)">
    <path
       style="fill:#000000;stroke:#000000;stroke-width:0.15464571px;stroke-linecap:butt;stroke-linejoin:miter;stroke-opacity:1"
       d="M 9.5053134,87.870987 H 158.15273 V 71.092212 H 9.5053134 Z"
       id="path51"
       inkscape:connector-curvature="0" />
    <path
       style="fill:#000000;stroke:#000000;stroke-width:0.15267375px;stroke-linecap:butt;stroke-linejoin:miter;stroke-opacity:1"
       d="M 9.3569634,112.54021 H 158.00438 V 96.18676 H 9.3569634 Z"
       id="path51-3"
       inkscape:connector-curvature="0" />
    <path
       style="fill:#000000;stroke:#000000;stroke-width:0.15264699px;stroke-linecap:butt;stroke-linejoin:miter;stroke-opacity:1"
       d="M 9.5943217,138.75634 H 158.24174 V 122.40856 H 9.5943217 Z"
       id="path51-3-6"
       inkscape:connector-curvature="0" />
    <path
       style="fill:#000000;stroke:#000000;stroke-width:0.14655323px;stroke-linecap:butt;stroke-linejoin:miter;stroke-opacity:1"
       d="M 9.2976244,164.32383 H 157.94504 V 149.25515 H 9.2976244 Z"
       id="path51-3-6-7"
       inkscape:connector-curvature="0" />
    <path
       style="fill:#000000;stroke:#000000;stroke-width:0.14447841px;stroke-linecap:butt;stroke-linejoin:miter;stroke-opacity:1"
       d="M 8.6448618,189.61169 H 157.29212 V 174.96665 H 8.6448618 Z"
       id="path51-3-6-7-3"
       inkscape:connector-curvature="0" />
  </g>
  <g
     inkscape:label="Layer 1"
     inkscape:groupmode="layer"
     id="layer1"
     transform="translate(0,-68.156669)">
    <rect
       style="fill:#999999;stroke-width:0.14115426"
       id="rect36"
       width="146.27379"
       height="14.205722"
       x="10.692118"
       y="72.378716" />
    <text
       xml:space="preserve"
       style="font-style:normal;font-weight:normal;font-size:8.70906639px;line-height:1.25;font-family:sans-serif;letter-spacing:0px;word-spacing:0px;fill:#000000;fill-opacity:1;stroke:none;stroke-width:0.21772666;image-rendering:auto"
       x="51.161064"
       y="85.988785"
       id="text129"
       transform="scale(1.0483203,0.95390694)"><tspan
         sodipodi:role="line"
         x="51.161064"
         y="85.988785"
         id="tspan127"
         style="stroke-width:0.21772666"><tspan
           x="51.161064"
           y="85.988785"
           id="tspan125"
           style="stroke-width:0.21772666">Free memory</tspan></tspan></text>
    <rect
       style="fill:#999999;stroke-width:0.14180332"
       id="rect36-5"
       width="146.27379"
       height="14.336665"
       x="10.543768"
       y="97.046806" />
    <rect
       style="fill:#999999;stroke-width:0.14115435"
       id="rect36-5-3"
       width="146.27377"
       height="14.205731"
       x="10.781124"
       y="123.4802" />
    <rect
       style="fill:#999999;stroke-width:0.13956092"
       id="rect36-5-3-5"
       width="146.27377"
       height="13.886827"
       x="10.484427"
       y="149.84698" />
    <text
       xml:space="preserve"
       style="font-style:normal;font-weight:normal;font-size:6.72648573px;line-height:1.25;font-family:sans-serif;letter-spacing:0px;word-spacing:0px;fill:#000000;fill-opacity:1;stroke:none;stroke-width:0.16816215"
       x="9.6037111"
       y="100.26498"
       id="text137"
       transform="scale(1.0525298,0.95009187)"><tspan
         sodipodi:role="line"
         x="9.6037111"
         y="100.26498"
         id="tspan135"
         style="stroke-width:0.16816215"><tspan
           x="9.6037111"
           y="100.26498"
           id="tspan131"
           style="stroke-width:0.16816215">After one allocation</tspan><tspan
           dx="0"
           x="75.25264"
           y="100.26498"
           id="tspan133"
           style="stroke-width:0.16816215" /></tspan></text>
    <rect
       style="fill:#ffffff;stroke-width:0.14970641"
       id="rect157"
       width="22.994356"
       height="14.336664"
       x="10.543768"
       y="97.046806" />
    <text
       xml:space="preserve"
       style="font-style:normal;font-weight:normal;font-size:8.70906639px;line-height:1.25;font-family:sans-serif;letter-spacing:0px;word-spacing:0px;fill:#000000;fill-opacity:1;stroke:none;stroke-width:0.21772666"
       x="62.855701"
       y="111.36391"
       id="text143"
       transform="scale(1.0483203,0.95390694)"><tspan
         sodipodi:role="line"
         x="62.855701"
         y="111.36391"
         id="tspan141"
         style="stroke-width:0.21772666"><tspan
           x="62.855701"
           y="111.36391"
           id="tspan139"
           style="stroke-width:0.21772666">Free memory</tspan></tspan></text>
    <text
       xml:space="preserve"
       style="font-style:normal;font-weight:normal;font-size:6.72648573px;line-height:1.25;font-family:sans-serif;letter-spacing:0px;word-spacing:0px;fill:#000000;fill-opacity:1;stroke:none;stroke-width:0.16816215"
       x="9.1124916"
       y="127.21771"
       id="text151"
       transform="scale(1.0525298,0.95009187)"><tspan
         sodipodi:role="line"
         x="9.1124916"
         y="127.21771"
         id="tspan149"
         style="stroke-width:0.16816215"><tspan
           x="9.1124916"
           y="127.21771"
           id="tspan145"
           style="stroke-width:0.16816215">After three allocations</tspan><tspan
           dx="0"
           x="83.563644"
           y="127.21771"
           id="tspan147"
           style="stroke-width:0.16816215" /></tspan></text>
    <rect
       style="fill:#ffffff;stroke-width:0.14902124"
       id="rect157-6"
       width="22.994358"
       height="14.205736"
       x="10.781124"
       y="123.4802" />
    <rect
       style="fill:#ffffff;stroke-width:0.22080509"
       id="rect157-6-0"
       width="50.587589"
       height="14.176303"
       x="33.77549"
       y="123.4802" />
    <rect
       style="fill:#ffffff;stroke-width:0.25295451"
       id="rect157-6-0-6"
       width="66.312759"
       height="14.193073"
       x="84.363075"
       y="123.44512" />
    <path
       style="fill:none;stroke:#000000;stroke-width:0.14049205px;stroke-linecap:butt;stroke-linejoin:miter;stroke-opacity:1"
       d="m 33.775483,124.12105 v 12.62609 z"
       id="path257"
       inkscape:connector-curvature="0" />
    <path
       style="fill:none;stroke:#000000;stroke-width:0.1513717px;stroke-linecap:butt;stroke-linejoin:miter;stroke-opacity:1"
       d="m 84.363075,123.10543 v 14.65734 z"
       id="path259"
       inkscape:connector-curvature="0" />
    <path
       style="fill:none;stroke:#000000;stroke-width:0.15137172px;stroke-linecap:butt;stroke-linejoin:miter;stroke-opacity:1"
       d="m 150.67586,123.10543 v 14.65734 z"
       id="path261"
       inkscape:connector-curvature="0" />
    <path
       style="fill:none;stroke:#000000;stroke-width:0.14965615px;stroke-linecap:butt;stroke-linejoin:miter;stroke-opacity:1"
       d="M 33.775483,137.69208 V 123.3651 Z"
       id="path263"
       inkscape:connector-curvature="0" />
    <path
       style="fill:none;stroke:#000000;stroke-width:0.15137172px;stroke-linecap:butt;stroke-linejoin:miter;stroke-opacity:1"
       d="M 150.67586,137.76277 V 123.10543 Z"
       id="path265"
       inkscape:connector-curvature="0" />
    <path
       style="fill:none;stroke:#000000;stroke-width:0.14970613px;stroke-linecap:butt;stroke-linejoin:miter;stroke-opacity:1"
       d="M 33.538123,111.38337 V 97.046898 Z"
       id="path267"
       inkscape:connector-curvature="0" />
    <rect
       style="fill:#ffffff;stroke-width:0.14655323"
       id="rect157-6-04"
       width="22.994358"
       height="13.739097"
       x="10.484427"
       y="149.84698" />
    <path
       style="fill:none;stroke:#000000;stroke-width:0.14655323px;stroke-linecap:butt;stroke-linejoin:miter;stroke-opacity:1"
       d="m 33.478789,163.58571 v -13.7391 z"
       id="path263-4"
       inkscape:connector-curvature="0" />
    <path
       style="fill:none;stroke:#000000;stroke-width:0.14655323px;stroke-linecap:butt;stroke-linejoin:miter;stroke-opacity:1"
       d="m 33.478789,163.58571 v -13.7391 z"
       id="path263-44"
       inkscape:connector-curvature="0" />
    <rect
       style="fill:#ffffff;stroke-width:0.24887618"
       id="rect157-6-0-6-7"
       width="66.312759"
       height="13.739097"
       x="83.99221"
       y="149.89091" />
    <path
       style="fill:none;stroke:#000000;stroke-width:0.14655323px;stroke-linecap:butt;stroke-linejoin:miter;stroke-opacity:1"
       d="m 83.992201,149.89056 v 13.7391 z"
       id="path259-6"
       inkscape:connector-curvature="0" />
    <path
       style="fill:none;stroke:#000000;stroke-width:0.14655323px;stroke-linecap:butt;stroke-linejoin:miter;stroke-opacity:1"
       d="m 83.992201,149.89056 v 13.7391 z"
       id="path259-6-3"
       inkscape:connector-curvature="0" />
    <path
       style="fill:none;stroke:#000000;stroke-width:0.14655323px;stroke-linecap:butt;stroke-linejoin:miter;stroke-opacity:1"
       d="m 150.30498,163.62966 v -13.7391 z"
       id="path265-1"
       inkscape:connector-curvature="0" />
    <path
       style="fill:none;stroke:#000000;stroke-width:0.14655323px;stroke-linecap:butt;stroke-linejoin:miter;stroke-opacity:1"
       d="m 150.30498,163.62966 v -13.7391 z"
       id="path265-1-7"
       inkscape:connector-curvature="0" />
    <text
       xml:space="preserve"
       style="font-style:normal;font-weight:normal;font-size:6.72648573px;line-height:1.25;font-family:sans-serif;letter-spacing:0px;word-spacing:0px;fill:#000000;fill-opacity:1;stroke:none;stroke-width:0.16816215"
       x="8.8166103"
       y="155.37198"
       id="text159"
       transform="scale(1.0525298,0.95009187)"><tspan
         sodipodi:role="line"
         x="8.8166103"
         y="155.37198"
         id="tspan157"
         style="stroke-width:0.16816215"><tspan
           x="8.8166103"
           y="155.37198"
           id="tspan153"
           style="stroke-width:0.16816215">After one free</tspan><tspan
           dx="0"
           x="55.048054"
           y="155.37198"
           id="tspan155"
           style="stroke-width:0.16816215" /></tspan></text>
    <text
       xml:space="preserve"
       style="font-style:normal;font-weight:normal;font-size:6.72648573px;line-height:1.25;font-family:sans-serif;letter-spacing:0px;word-spacing:0px;fill:#000000;fill-opacity:1;stroke:none;stroke-width:0.16816215"
       x="8.2528248"
       y="181.95242"
       id="text165"
       transform="scale(1.0525298,0.95009187)"><tspan
         sodipodi:role="line"
         x="8.2528248"
         y="181.95242"
         id="tspan163"
         style="stroke-width:0.16816215"><tspan
           x="8.2528248"
           y="181.95242"
           id="tspan161"
           style="stroke-width:0.16816215">After two allocations </tspan></tspan></text>
    <rect
       style="fill:#999999;stroke-width:0.1375851"
       id="rect36-5-3-5-1"
       width="146.27377"
       height="13.496406"
       x="9.8316841"
       y="175.48355" />
    <rect
       style="fill:#ffffff;stroke-width:0.14447841"
       id="rect157-6-04-8"
       width="22.994358"
       height="13.35283"
       x="9.8316841"
       y="175.48355" />
    <path
       style="fill:none;stroke:#000000;stroke-width:0.14447841px;stroke-linecap:butt;stroke-linejoin:miter;stroke-opacity:1"
       d="M 32.826048,188.83638 V 175.48355 Z"
       id="path263-4-5"
       inkscape:connector-curvature="0" />
    <path
       style="fill:none;stroke:#000000;stroke-width:0.14447841px;stroke-linecap:butt;stroke-linejoin:miter;stroke-opacity:1"
       d="M 32.826048,188.83638 V 175.48355 Z"
       id="path263-44-9"
       inkscape:connector-curvature="0" />
    <rect
       style="fill:#ffffff;stroke-width:0.24535273"
       id="rect157-6-0-6-7-7"
       width="66.312759"
       height="13.35283"
       x="83.339478"
       y="175.52629" />
    <path
       style="fill:none;stroke:#000000;stroke-width:0.14447841px;stroke-linecap:butt;stroke-linejoin:miter;stroke-opacity:1"
       d="m 83.339466,175.52626 v 13.35283 z"
       id="path259-6-5"
       inkscape:connector-curvature="0" />
    <path
       style="fill:none;stroke:#000000;stroke-width:0.14447841px;stroke-linecap:butt;stroke-linejoin:miter;stroke-opacity:1"
       d="m 83.339466,175.52626 v 13.35283 z"
       id="path259-6-3-3"
       inkscape:connector-curvature="0" />
    <path
       style="fill:none;stroke:#000000;stroke-width:0.14447841px;stroke-linecap:butt;stroke-linejoin:miter;stroke-opacity:1"
       d="M 149.65224,188.87909 V 175.52626 Z"
       id="path265-1-8"
       inkscape:connector-curvature="0" />
    <path
       style="fill:none;stroke:#000000;stroke-width:0.14447841px;stroke-linecap:butt;stroke-linejoin:miter;stroke-opacity:1"
       d="M 149.65224,188.87909 V 175.52626 Z"
       id="path265-1-7-8"
       inkscape:connector-curvature="0" />
    <rect
       style="fill:#ffffff;stroke-width:0.10572463"
       id="rect157-6-04-8-1"
       width="12.313108"
       height="13.35283"
       x="43.047409"
       y="175.64157" />
    <rect
       style="fill:#ffffff;stroke-width:0.10572463"
       id="rect157-6-04-8-1-8"
       width="12.313108"
       height="13.35283"
       x="64.11322"
       y="175.49796" />
    <path
       style="fill:none;stroke:#000000;stroke-width:0.14447841px;stroke-linecap:butt;stroke-linejoin:miter;stroke-opacity:1"
       d="M 43.047407,175.64147 V 188.9943 Z"
       id="path535"
       inkscape:connector-curvature="0" />
    <path
       style="fill:none;stroke:#000000;stroke-width:0.14447841px;stroke-linecap:butt;stroke-linejoin:miter;stroke-opacity:1"
       d="M 55.360518,175.64147 V 188.9943 175.64147 188.9943 Z"
       id="path537"
       inkscape:connector-curvature="0" />
    <path
       style="fill:none;stroke:#000000;stroke-width:0.14447841px;stroke-linecap:butt;stroke-linejoin:miter;stroke-opacity:1"
       d="M 64.113203,188.85072 V 175.4979 Z"
       id="path539"
       inkscape:connector-curvature="0" />
    <path
       style="fill:none;stroke:#000000;stroke-width:0.14447841px;stroke-linecap:butt;stroke-linejoin:miter;stroke-opacity:1"
       d="M 76.426313,188.85072 V 175.4979 Z"
       id="path541"
       inkscape:connector-curvature="0" />
    <text
       xml:space="preserve"
       style="font-style:normal;font-weight:normal;font-size:6.72648573px;line-height:1.25;font-family:sans-serif;letter-spacing:0px;word-spacing:0px;fill:#000000;fill-opacity:1;stroke:none;stroke-width:0.16816215"
       x="7.4828539"
       y="208.00816"
       id="text173"
       transform="scale(1.0525298,0.95009187)"><tspan
         sodipodi:role="line"
         x="7.4828539"
         y="208.00816"
         id="tspan171"
         style="stroke-width:0.16816215"><tspan
           x="7.4828539"
           y="208.00816"
           id="tspan167"
           style="stroke-width:0.16816215"> Two hours later</tspan><tspan
           dx="0"
           x="60.992569"
           y="208.00816"
           id="tspan169"
           style="stroke-width:0.16816215" /></tspan></text>
    <path
       style="fill:#000000;stroke:#000000;stroke-width:0.1379922px;stroke-linecap:butt;stroke-linejoin:miter;stroke-opacity:1"
       d="M 8.4076008,212.99646 H 157.05486 v -13.3596 H 8.4076008 Z"
       id="path51-3-6-7-3-3"
       inkscape:connector-curvature="0" />
    <rect
       style="fill:#999999;stroke-width:0.13140836"
       id="rect36-5-3-5-1-8"
       width="146.27377"
       height="12.311793"
       x="9.5944233"
       y="200.10803" />
    <rect
       style="fill:#ffffff;stroke-width:0.07097095"
       id="rect157-6-04-8-6"
       width="6.0823793"
       height="12.18082"
       x="9.5944233"
       y="200.10803" />
    <path
       style="fill:none;stroke:#000000;stroke-width:0.1379922px;stroke-linecap:butt;stroke-linejoin:miter;stroke-opacity:1"
       d="M 15.676807,212.28919 V 200.10837 Z"
       id="path263-4-5-0"
       inkscape:connector-curvature="0" />
    <path
       style="fill:none;stroke:#000000;stroke-width:0.1379922px;stroke-linecap:butt;stroke-linejoin:miter;stroke-opacity:1"
       d="M 15.676807,212.28918 V 200.10836 Z"
       id="path263-44-9-4"
       inkscape:connector-curvature="0" />
    <rect
       style="fill:#ffffff;stroke-width:0.10916277"
       id="rect157-6-0-6-7-7-8"
       width="14.390016"
       height="12.18082"
       x="99.717468"
       y="200.147" />
    <path
       style="fill:none;stroke:#000000;stroke-width:0.1379922px;stroke-linecap:butt;stroke-linejoin:miter;stroke-opacity:1"
       d="m 99.717487,200.14734 v 12.18081 z"
       id="path259-6-5-8"
       inkscape:connector-curvature="0" />
    <path
       style="fill:none;stroke:#000000;stroke-width:0.1379922px;stroke-linecap:butt;stroke-linejoin:miter;stroke-opacity:1"
       d="m 99.717487,200.14734 v 12.18081 z"
       id="path259-6-3-3-8"
       inkscape:connector-curvature="0" />
    <path
       style="fill:none;stroke:#000000;stroke-width:0.1379922px;stroke-linecap:butt;stroke-linejoin:miter;stroke-opacity:1"
       d="M 114.10751,212.32815 V 200.14734 Z"
       id="path265-1-8-9"
       inkscape:connector-curvature="0" />
    <path
       style="fill:none;stroke:#000000;stroke-width:0.1379922px;stroke-linecap:butt;stroke-linejoin:miter;stroke-opacity:1"
       d="M 114.10751,212.32815 V 200.14734 Z"
       id="path265-1-7-8-7"
       inkscape:connector-curvature="0" />
    <rect
       style="fill:#ffffff;stroke-width:0.10097823"
       id="rect157-6-04-8-1-7"
       width="12.313108"
       height="12.18082"
       x="42.810146"
       y="200.25212" />
    <rect
       style="fill:#ffffff;stroke-width:0.10097823"
       id="rect157-6-04-8-1-8-6"
       width="12.313108"
       height="12.18082"
       x="63.875954"
       y="200.12115" />
    <path
       style="fill:none;stroke:#000000;stroke-width:0.1379922px;stroke-linecap:butt;stroke-linejoin:miter;stroke-opacity:1"
       d="m 42.810147,200.25245 v 12.18082 z"
       id="path535-4"
       inkscape:connector-curvature="0" />
    <path
       style="fill:none;stroke:#000000;stroke-width:0.1379922px;stroke-linecap:butt;stroke-linejoin:miter;stroke-opacity:1"
       d="m 55.123258,200.25245 v 12.18082 -12.18082 12.18082 z"
       id="path537-3"
       inkscape:connector-curvature="0" />
    <path
       style="fill:none;stroke:#000000;stroke-width:0.1379922px;stroke-linecap:butt;stroke-linejoin:miter;stroke-opacity:1"
       d="M 63.875943,212.30229 V 200.12148 Z"
       id="path539-0"
       inkscape:connector-curvature="0" />
    <path
       style="fill:none;stroke:#000000;stroke-width:0.1379922px;stroke-linecap:butt;stroke-linejoin:miter;stroke-opacity:1"
       d="M 76.189047,212.30229 V 200.12148 Z"
       id="path541-3"
       inkscape:connector-curvature="0" />
    <rect
       style="fill:#ffffff;stroke-width:0.09851497"
       id="rect157-6-0-6-7-7-8-0"
       width="11.719702"
       height="12.18082"
       x="128.05229"
       y="200.09497" />
    <rect
       style="fill:#ffffff;stroke-width:0.08368085"
       id="rect157-6-0-6-7-7-8-9"
       width="8.4559879"
       height="12.18082"
       x="147.41216"
       y="200.23901" />
    <rect
       style="fill:#ffffff;stroke-width:0.07097095"
       id="rect157-6-0-6-7-7-8-2"
       width="6.0823765"
       height="12.18082"
       x="84.140572"
       y="200.09496" />
    <rect
       style="fill:#ffffff;stroke-width:0.04831315"
       id="rect157-6-0-6-7-7-8-5"
       width="2.8186612"
       height="12.18082"
       x="119.92274"
       y="200.147" />
    <rect
       style="fill:#ffffff;stroke-width:0.11677508"
       id="rect157-6-04-8-1-7-4"
       width="16.46693"
       height="12.18082"
       x="22.278301"
       y="200.22592" />
    <path
       style="fill:none;stroke:#000000;stroke-width:0.1379922px;stroke-linecap:butt;stroke-linejoin:miter;stroke-opacity:1"
       d="M 90.222932,200.09527 V 212.2761 Z"
       id="path259-6-3-3-8-5"
       inkscape:connector-curvature="0" />
    <path
       style="fill:none;stroke:#000000;stroke-width:0.1379922px;stroke-linecap:butt;stroke-linejoin:miter;stroke-opacity:1"
       d="M 84.140558,200.09527 V 212.2761 Z"
       id="path259-6-3-3-8-9"
       inkscape:connector-curvature="0" />
    <path
       style="fill:none;stroke:#000000;stroke-width:0.1379922px;stroke-linecap:butt;stroke-linejoin:miter;stroke-opacity:1"
       d="m 38.745238,200.22624 v 12.18083 z"
       id="path259-6-3-3-8-4"
       inkscape:connector-curvature="0" />
    <path
       style="fill:none;stroke:#000000;stroke-width:0.1379922px;stroke-linecap:butt;stroke-linejoin:miter;stroke-opacity:1"
       d="m 22.278309,200.22624 v 12.18083 z"
       id="path259-6-3-3-8-6"
       inkscape:connector-curvature="0" />
    <path
       style="fill:none;stroke:#000000;stroke-width:0.1379922px;stroke-linecap:butt;stroke-linejoin:miter;stroke-opacity:1"
       d="m 119.92278,200.14733 v 12.18082 z"
       id="path259-6-3-3-8-92"
       inkscape:connector-curvature="0" />
    <path
       style="fill:none;stroke:#000000;stroke-width:0.1379922px;stroke-linecap:butt;stroke-linejoin:miter;stroke-opacity:1"
       d="m 122.74144,200.14734 v 12.18081 z"
       id="path259-6-3-3-8-2"
       inkscape:connector-curvature="0" />
    <path
       style="fill:none;stroke:#000000;stroke-width:0.1379922px;stroke-linecap:butt;stroke-linejoin:miter;stroke-opacity:1"
       d="M 128.05238,200.09528 V 212.2761 Z"
       id="path259-6-3-3-8-47"
       inkscape:connector-curvature="0" />
    <path
       style="fill:none;stroke:#000000;stroke-width:0.1379922px;stroke-linecap:butt;stroke-linejoin:miter;stroke-opacity:1"
       d="M 139.77208,200.09528 V 212.2761 Z"
       id="path259-6-3-3-8-7"
       inkscape:connector-curvature="0" />
    <path
       style="fill:none;stroke:#000000;stroke-width:0.1379922px;stroke-linecap:butt;stroke-linejoin:miter;stroke-opacity:1"
       d="m 147.41224,200.23933 v 12.18083 z"
       id="path259-6-3-3-8-54"
       inkscape:connector-curvature="0" />
    <flowRoot
       xml:space="preserve"
       id="flowRoot771"
       style="font-style:normal;font-weight:normal;font-size:40px;line-height:1.25;font-family:sans-serif;letter-spacing:0px;word-spacing:0px;fill:#000000;fill-opacity:1;stroke:none"
       transform="scale(0.26458333)"><flowRegion
         id="flowRegion773"><rect
           id="rect775"
           width="79.285713"
           height="102.57157"
           x="45.000004"
           y="199.94812" /></flowRegion><flowPara
         id="flowPara777">used memory</flowPara></flowRoot>    <path
       style="fill:#000000;stroke:#000000;stroke-width:0.04478099px;stroke-linecap:butt;stroke-linejoin:miter;stroke-opacity:1"
       d="m 135.47402,235.11717 h 15.65436 v -13.3596 h -15.65436 z"
       id="path51-3-6-7-3-3-3"
       inkscape:connector-curvature="0" />
    <rect
       style="fill:#ffffff;stroke-width:0.10866622"
       id="rect157-6-0-6-7-7-8-9-9"
       width="14.2594"
       height="12.18082"
       x="136.07677"
       y="222.34836" />
    <path
       style="fill:#000000;stroke-width:0.21166666"
       id="path186"
       d="m 138.80424,225.1832 c -0.23669,-0.0238 -0.44745,0.0772 -0.66673,0.1447 -0.48161,0.26549 -1.12053,0.62332 1.13306,-0.65229 0.14578,-0.0825 -0.1406,0.0954 -0.18322,0.13267 -0.0953,0.12726 -0.15998,0.27353 -0.19737,0.42747 -0.0433,0.18013 -0.0305,0.35517 0.004,0.5343 0.0203,0.15346 0.0772,0.29649 0.17687,0.41508 0.10737,0.0938 0.21809,0.15767 0.35841,0.18681 0.15029,0.0378 0.29472,0.0864 0.45123,0.1054 0.0786,-0.008 0.16762,0.0313 0.24583,0.0155 0.0168,-0.003 0.0594,-0.0345 0.0444,-0.0262 -1.33661,0.74152 -1.76605,1.0225 -1.29383,0.71513 0.0855,-0.0599 0.14626,-0.14494 0.20491,-0.23064 0.0679,-0.14618 0.0634,-0.31423 0.068,-0.47222 0.0152,-0.19362 -0.002,-0.38073 -0.0403,-0.56995 -0.0369,-0.12859 -0.10828,-0.24214 -0.20157,-0.33712 -0.0783,-0.0939 -0.18375,-0.17685 -0.2912,-0.23698 -0.0347,0.001 -0.0602,0.0161 -0.0875,0.0353 0.44822,-0.25125 0.89533,-0.50446 1.34464,-0.75374 0.0204,-0.0113 -0.0332,0.0337 -0.0436,0.0546 -0.0218,0.0857 -0.025,0.18035 -0.0123,0.26795 0.0285,0.10768 0.0978,0.19385 0.14401,0.29492 0.0396,0.10671 0.0556,0.23765 -0.004,0.33993 -0.0107,0.004 -0.0215,0.008 -0.0322,0.0127 0,0 -1.4771,0.60772 -1.4771,0.60772 v 0 c 0.007,-0.0128 0.0142,-0.0256 0.0214,-0.0383 0.0248,-10e-4 0.0513,0.0123 0.0745,0.003 0.0439,-0.0167 0.0442,-0.11392 0.0289,-0.14361 -0.0464,-0.10939 -0.12658,-0.19847 -0.15634,-0.31519 -0.037,-0.10994 -0.0261,-0.22556 -0.0266,-0.34078 0.0707,-0.63034 1.01522,-1.20704 1.56701,-0.88494 0.11113,0.0817 0.22832,0.16117 0.31268,0.27179 0.10438,0.12304 0.19256,0.25696 0.2393,0.4131 0.041,0.20004 0.0734,0.39609 0.0552,0.60171 -0.002,0.17593 -6.4e-4,0.35365 -0.0336,0.52713 -0.0338,0.11342 -0.10505,0.20649 -0.17619,0.29575 -0.52163,0.55245 -1.09468,0.93783 -1.77382,0.80629 -0.15842,-0.0302 -0.30934,-0.0837 -0.4659,-0.12133 -0.15664,-0.0594 -0.29392,-0.1468 -0.40997,-0.26899 -0.10778,-0.14219 -0.18883,-0.30331 -0.21214,-0.48218 -0.0392,-0.19663 -0.0696,-0.38791 -0.0312,-0.58857 0.0263,-0.17856 0.0831,-0.33519 0.16411,-0.49451 0.0453,-0.0822 0.0824,-0.13239 0.16468,-0.18038 0.4319,-0.252 1.0315,-0.70076 1.60074,-0.89797 0.22692,-0.0742 0.45722,-0.1189 0.6978,-0.10707 0,0 -1.28484,0.93349 -1.28484,0.93349 z"
       inkscape:connector-curvature="0" />
    <path
       style="fill:#000000;stroke-width:0.21166666"
       id="path188"
       d="m 146.08745,225.86773 c -0.12157,0.0666 -0.25967,0.0956 -0.38423,0.15481 -0.0369,0.0175 -0.14132,0.0821 -0.10585,0.0618 1.26143,-0.7212 1.69033,-0.98407 1.20314,-0.68647 -0.12256,0.0903 -0.13661,0.22509 -0.1456,0.36635 0.002,0.11158 0.0478,0.20972 0.1017,0.30416 0.0966,0.0794 0.20046,0.14918 0.29238,0.23701 0.10982,0.0688 0.21903,0.13002 0.34715,0.15902 0.10783,0.007 0.29149,0.0792 0.37921,8.4e-4 0.0322,-0.0421 0.012,-0.0258 0.061,-0.0483 -0.44337,0.25608 -0.88626,0.51299 -1.33009,0.76826 -0.0111,0.006 0.0214,-0.0141 0.0318,-0.0216 0.0406,-0.0292 0.0262,-0.0163 0.054,-0.0631 0.0399,-0.11952 0.0379,-0.2472 0.0407,-0.37171 0.0134,-0.13087 -0.0296,-0.24447 -0.0902,-0.35668 -0.0739,-0.0924 -0.14144,-0.18773 -0.23407,-0.26236 -0.0905,-0.0512 -0.18537,-0.0704 -0.28788,-0.0722 -0.0366,0.011 -0.0946,-0.0167 -0.1296,1.6e-4 -0.0244,0.0118 -0.0763,0.0752 -0.0528,0.0618 0.44449,-0.25175 0.88489,-0.51068 1.32733,-0.76603 -0.46673,0.27157 -0.93346,0.54314 -1.40019,0.81471 0,0 1.2436,-1.00094 1.2436,-1.00094 v 0 c -0.44214,0.25833 -0.88428,0.51666 -1.32642,0.77499 0.88536,-0.51866 0.9648,-0.90395 1.63901,-0.80672 0.12455,0.0253 0.24009,0.0737 0.34001,0.1541 0.0985,0.0942 0.18337,0.1983 0.26201,0.30963 0.073,0.13256 0.13379,0.27356 0.12725,0.42872 4.3e-4,0.13694 0.002,0.27518 -0.018,0.4109 -0.0829,0.63474 -0.9338,0.89868 -1.52617,1.01366 -0.14189,-0.0195 -0.28705,-0.0231 -0.42348,-0.0718 -0.14004,-0.0513 -0.27448,-0.12373 -0.38949,-0.21925 -0.10318,-0.0954 -0.23322,-0.1611 -0.31724,-0.27611 -0.0706,-0.11993 -0.1214,-0.24517 -0.13965,-0.38506 0.002,-0.16885 10e-4,-0.33576 0.0912,-0.48549 0.4939,-0.5647 1.31237,-0.83509 2.01729,-1.0957 0,0 -1.25788,0.9685 -1.25788,0.9685 z"
       inkscape:connector-curvature="0" />
    <path
       style="fill:#000000;stroke-width:0.21166666"
       id="path192"
       d="m 138.53289,232.9763 c 0.1361,-0.26596 0.27481,-0.53095 0.42696,-0.78814 0.1003,-0.16399 0.21515,-0.3196 0.35143,-0.45533 0.16668,-0.15687 0.34512,-0.30057 0.51416,-0.45466 0.14876,-0.12994 0.28958,-0.26889 0.4388,-0.39816 0.49983,-0.41199 1.10406,-0.65737 1.65445,-1.00264 0.41945,-0.26313 -0.85739,0.49558 -1.2873,0.74125 -0.0243,0.0139 0.0468,-0.0305 0.0702,-0.0457 3.89248,-2.21583 0.0984,-0.0481 0.14524,-0.0763 0.56995,-0.34269 1.04814,-0.78736 1.68951,-0.88095 0.20374,-0.0221 0.40905,-0.0211 0.61372,-0.0216 0.20128,-0.0208 0.391,0.0445 0.58703,0.0764 0.16527,0.0478 0.3135,0.13331 0.47463,0.19014 0.1496,0.0688 0.26766,0.17955 0.39587,0.279 0.1129,0.10328 0.213,0.22015 0.32796,0.32109 0.10681,0.11755 0.22912,0.21669 0.31681,0.35034 0.0604,0.15074 0.15824,0.28043 0.23059,0.42458 0.0817,0.1365 0.16105,0.27624 0.22517,0.42208 0.0586,0.15418 0.0787,0.31759 0.0792,0.48141 0,0 -1.42066,0.7104 -1.42066,0.7104 v 0 c 0.0247,-0.13842 -0.003,-0.27957 -0.0443,-0.41301 -0.061,-0.1441 -0.14234,-0.27965 -0.22117,-0.41446 -0.0683,-0.1385 -0.16513,-0.26155 -0.22088,-0.40685 -0.0825,-0.12039 -0.20084,-0.20964 -0.29767,-0.31807 -0.10758,-0.10371 -0.21052,-0.21213 -0.32206,-0.31175 -0.11363,-0.094 -0.22994,-0.18478 -0.3688,-0.23934 -0.14842,-0.0639 -0.29586,-0.13285 -0.45539,-0.16515 -0.18858,-0.0363 -0.37443,-0.0721 -0.5681,-0.0538 -0.1994,0.003 -0.40105,0.004 -0.59637,0.0495 -0.0755,0.0226 -0.0902,0.0238 -0.16068,0.0572 -0.0243,0.0115 -0.0944,0.0516 -0.0711,0.0381 0.42973,-0.2493 1.73094,-0.97552 1.29058,-0.7455 -0.21353,0.11153 -3.39567,1.95543 -0.14616,0.0753 -0.56662,0.30378 0.1016,-0.0556 -1.5019,0.87319 -0.42719,0.24744 0.85187,-0.49924 1.27882,-0.74712 0.0256,-0.0149 -0.0513,0.0301 -0.0749,0.0481 -0.15922,0.12106 0.0222,0.008 -0.15069,0.10903 -0.15346,0.12628 -0.29249,0.26512 -0.44628,0.39077 -0.16158,0.16147 -0.34139,0.2997 -0.50839,0.45571 -0.14506,0.12207 -0.26537,0.26092 -0.37624,0.41513 -0.14918,0.25275 -0.29701,0.50534 -0.43034,0.76729 0,0 -1.44185,0.66256 -1.44185,0.66256 z"
       inkscape:connector-curvature="0" />
    <path
       style="fill:#000000;fill-opacity:0;stroke-width:0.21166666"
       id="path238"
       d="m 136.30437,203.03895 c 0.24673,0.15886 0.49401,0.31814 0.73478,0.48574 0.17247,0.11996 0.37179,0.18402 0.56284,0.26522 0.24062,0.10251 0.47581,0.21703 0.71511,0.32253 0.23225,0.15205 0.32773,0.29128 0.60206,0.38116 0.21369,0.10393 0.42329,0.21437 0.63711,0.31837 0.21441,0.0985 0.35189,0.29342 0.55411,0.40838 0.14969,0.12777 0.2984,0.24611 0.48162,0.32364 0.13381,0.0774 0.28779,0.11591 0.42494,0.18445 0.0801,0.04 0.15154,0.0953 0.22757,0.1425 0.18263,0.11081 0.37164,0.21773 0.5437,0.34483 0.15406,0.11096 0.32257,0.19526 0.4913,0.28086 0.13405,0.0903 0.27034,0.18604 0.4211,0.24639 0.0823,0.0738 0.19727,0.0865 0.28295,0.15351 0.0437,0.0342 0.0808,0.0762 0.1229,0.11236 0.11667,0.11261 0.20724,0.24349 0.29283,0.38057 0.0899,0.14809 0.15222,0.30451 0.20909,0.46751 0.0706,0.16945 0.13486,0.34229 0.20642,0.51151 0.0732,0.17778 0.14413,0.35624 0.19276,0.54247 0.0486,0.19625 0.12054,0.38377 0.18677,0.57417 0.0538,0.18681 0.10881,0.37285 0.18154,0.55315 0.0565,0.16268 0.10378,0.32982 0.17771,0.48585 0.0115,0.0244 0.0231,0.0487 0.0346,0.0731 0,0 -1.38314,0.78358 -1.38314,0.78358 v 0 c -0.0115,-0.0242 -0.0229,-0.0485 -0.0344,-0.0727 -0.0761,-0.15873 -0.12763,-0.32828 -0.18091,-0.49565 -0.0731,-0.18315 -0.1329,-0.37076 -0.18554,-0.56078 -0.0646,-0.19555 -0.13909,-0.3868 -0.1919,-0.58635 -0.0425,-0.17968 -0.11406,-0.34831 -0.18278,-0.51915 -0.0737,-0.17129 -0.13387,-0.34904 -0.20963,-0.51952 -0.057,-0.15047 -0.10748,-0.30004 -0.19487,-0.43695 -0.078,-0.12326 -0.15919,-0.24174 -0.26866,-0.33982 -0.11433,-0.099 -0.24824,-0.15846 -0.38125,-0.22936 -0.1461,-0.0762 -0.28519,-0.16536 -0.42403,-0.25393 -0.17118,-0.0934 -0.34586,-0.18035 -0.50174,-0.29908 -0.17436,-0.11805 -0.35316,-0.23056 -0.53381,-0.33862 -0.20558,-0.12455 -0.42925,-0.20736 -0.64579,-0.31069 -0.17971,-0.0929 -0.33575,-0.21418 -0.49319,-0.33941 -0.18439,-0.12735 -0.33061,-0.30301 -0.53935,-0.39541 -0.21228,-0.0991 -0.41539,-0.21616 -0.6313,-0.30706 -0.23317,-0.1006 -0.39289,-0.26173 -0.60671,-0.38954 -0.23619,-0.10976 -0.473,-0.21819 -0.71469,-0.31549 -0.20264,-0.0789 -0.40212,-0.16767 -0.57925,-0.29592 -0.24173,-0.16655 -0.48092,-0.33797 -0.73804,-0.48031 0,0 1.33708,-0.85612 1.33708,-0.85612 z"
       inkscape:connector-curvature="0" />
    <path
       style="fill:#000000;fill-opacity:0;stroke-width:0.21166666"
       id="path4738"
       d="m 114.42141,207.20494 c -0.21899,-0.3304 -0.35451,-0.69999 -0.44376,-1.08362 -0.0859,-0.43102 -0.0369,-0.75025 0.14761,-1.14359 0.0943,-0.18441 0.23045,-0.34223 0.38932,-0.47442 0.15092,-0.12557 0.0875,-0.0576 0.1402,-0.11546 0.16225,-0.13265 0.34673,-0.24114 0.52905,-0.33805 0.19312,-0.10504 0.39624,-0.18016 0.6017,-0.25341 0.19665,-0.0753 0.4289,-0.0721 0.61267,-0.11883 0.25816,-0.0678 0.52516,-0.0834 0.7906,-0.0947 0.25102,0.0203 0.52886,0.031 0.76331,0.13743 0.0917,0.0416 0.17929,0.0917 0.26894,0.13761 0.23792,0.14744 0.44928,0.31712 0.63578,0.52552 0.18676,0.20439 0.31012,0.44774 0.40287,0.70604 0.11063,0.38601 0.11732,0.68211 0.0338,1.07615 -0.0741,0.27063 -0.18073,0.52813 -0.30973,0.77672 -0.0605,0.16316 -0.1845,0.32226 -0.26587,0.46139 -0.11547,0.22094 -0.29267,0.39653 -0.43887,0.59527 -0.1658,0.21786 -0.32033,0.44358 -0.49382,0.65544 -0.14942,0.22205 -0.34624,0.40598 -0.54127,0.58761 -0.14039,0.15971 -0.30953,0.28465 -0.4726,0.41868 -0.11795,0.0858 -0.24716,0.15374 -0.37367,0.2252 -0.99075,0.55154 -1.77075,-0.8496 -0.78,-1.40114 v 0 c 0.0641,-0.0344 0.17787,-0.0994 0.17558,-0.0949 0.10554,-0.0796 0.23712,-0.18527 0.36651,-0.32947 0.16002,-0.14217 0.28218,-0.2628 0.39941,-0.43966 0.16966,-0.18017 0.2832,-0.4096 0.44607,-0.59598 0.12446,-0.15988 0.21068,-0.23447 0.30524,-0.3897 0.11075,-0.19088 0.16364,-0.23118 0.24995,-0.43151 0.0747,-0.14386 0.1403,-0.29 0.18281,-0.4482 0.0185,0.145 0.003,-0.1378 -0.006,-0.1609 -6e-5,-0.0813 -0.0888,-0.14462 -0.13035,-0.20593 0.14519,0.11606 -0.20031,-0.16209 -0.23342,-0.16907 0.2527,0.0795 -0.0968,-0.0323 -0.1186,-0.0344 -0.15944,0.006 -0.32097,0.009 -0.47619,0.0502 -0.15626,0.0374 -0.31344,0.0621 -0.47304,0.0779 -0.10635,0.0309 -0.2093,0.0769 -0.30839,0.11837 -0.0943,0.0527 -0.20064,0.0885 -0.28238,0.15916 -0.22844,0.19498 -0.091,0.0184 -0.1807,0.1521 0.0606,-0.22014 -0.0188,-0.0353 0.008,0.029 0.039,0.19279 0.10634,0.37704 0.21298,0.54357 0.62898,0.94348 -0.70531,1.83301 -1.3343,0.88952 z"
       inkscape:connector-curvature="0" />
    <path
       style="fill:#0000ca;fill-opacity:0;stroke-width:0.08;stroke-miterlimit:4;stroke-dasharray:none"
       id="path4740"
       d="m 144.63375,184.68 c 0.30532,-0.10906 0.60104,-0.24171 0.91028,-0.33972 0.28631,-0.0855 0.58412,-0.10627 0.88096,-0.11479 0.26881,-0.0181 0.53329,0.0137 0.79758,0.0592 0.29969,0.0607 0.57984,0.17763 0.84891,0.31976 0.17019,0.0959 0.28678,0.14302 0.45619,0.21573 0.2922,0.1141 0.53135,0.30254 0.74761,0.52535 0.11267,0.14671 0.2359,0.20802 0.38852,0.31391 0.11967,0.10317 0.24337,0.20192 0.34711,0.32202 0.074,0.0857 0.12962,0.18418 0.21678,0.25681 0.18371,0.14383 0.29877,0.37312 0.4799,0.51326 0.20067,0.14948 0.33739,0.36426 0.53003,0.51887 0.26495,0.18637 0.46598,0.43848 0.68112,0.67622 0.1952,0.26313 0.38906,0.52458 0.53259,0.81989 0.10559,0.18596 0.21896,0.36659 0.32097,0.61222 0.12771,0.27487 0.19763,0.56759 0.23909,0.86631 0.0282,0.24863 0.0286,0.49914 0.0291,0.74901 0.009,0.28068 -0.0628,0.55253 -0.14983,0.8165 -0.0494,0.20054 -0.1183,0.39581 -0.19128,0.58892 -0.0723,0.20019 -0.13723,0.40295 -0.21447,0.6013 -0.067,0.15176 -0.0949,0.31506 -0.14694,0.47252 -0.0681,0.18375 -0.11735,0.37295 -0.17751,0.55916 -0.0493,0.16115 -0.12503,0.31406 -0.16048,0.47922 -0.0502,0.22075 -0.15594,0.42381 -0.209,0.64323 -0.0747,0.19272 -0.12821,0.39124 -0.18953,0.58825 -0.0498,0.19892 -0.11114,0.39373 -0.14162,0.59701 -0.0606,0.25475 -0.12201,0.5056 -0.20507,0.75355 -0.0901,0.14806 -0.1351,0.31038 -0.18878,0.47337 -0.0408,0.13536 -0.048,0.27714 -0.0547,0.41742 -0.007,0.19984 -0.006,0.39985 -0.005,0.59977 4.2e-4,0.24327 8.4e-4,0.48654 0.001,0.7298 0.0204,0.10862 -0.0339,0.49319 0.007,0.56723 0.0347,0.13909 0.0353,0.28533 0.0643,0.42502 0.003,0.0162 -0.0144,-0.057 4.2e-4,-0.0496 0.0204,0.0103 0.0178,0.0421 0.0267,0.0632 0.0763,0.21911 0.17324,0.42783 0.24145,0.64995 0.0574,0.13928 0.0776,0.29001 0.15361,0.4207 0.0914,0.0854 0.15845,0.53211 0.22816,0.59166 0.0625,0.17613 0.16876,0.31448 0.25872,0.47647 0.0865,0.14648 0.15702,0.27697 0.22394,0.3766 0.0498,0.0861 0.0973,0.16654 0.15297,0.24839 0.002,0.003 -0.004,-0.0138 -0.002,-0.0109 0.0626,0.0771 0.0791,0.12621 0.0612,0.077 0.12563,0.11162 0.21724,0.25686 0.34711,0.36399 0.15205,0.13992 0.29823,0.2866 0.43976,0.4371 0.0337,0.0316 0.31805,0.31833 0.19835,0.19577 0.20303,0.14142 0.37584,0.32001 0.55615,0.48819 0.14079,0.115 0.27009,0.2431 0.40653,0.36315 -0.006,-0.0198 0.32438,0.25929 0.26744,0.19509 0.1113,0.0661 0.2119,0.1467 0.31813,0.22019 0.91986,0.66305 -0.0178,1.96394 -0.9377,1.30089 v 0 c -0.10409,-0.0762 -0.0687,-0.0596 -0.18772,-0.13549 -0.19079,-0.12009 -0.36141,-0.25908 -0.54087,-0.39594 -0.13989,-0.12948 -0.28053,-0.25812 -0.42662,-0.38178 -0.16256,-0.15733 -0.22991,-0.22898 -0.35115,-0.32422 -0.17863,-0.13306 -0.33333,-0.28457 -0.48707,-0.4449 -0.10025,-0.13 -0.23899,-0.23165 -0.35281,-0.34891 -0.1501,-0.14504 -0.28741,-0.30132 -0.43263,-0.45061 -0.1343,-0.15603 -0.26544,-0.32043 -0.36078,-0.50359 -0.1136,-0.16959 -0.20134,-0.34553 -0.30827,-0.51741 -0.0711,-0.19429 -0.25381,-0.34841 -0.29918,-0.55812 -0.078,-0.18174 -0.13372,-0.36986 -0.20911,-0.55175 -0.10512,-0.22084 -0.1834,-0.44982 -0.25579,-0.68314 -0.0387,-0.17472 -0.14492,-0.3302 -0.19102,-0.50353 -0.1065,-0.27323 -0.15663,-0.55447 -0.19454,-0.84401 -0.0229,-0.25152 -0.0205,-0.5028 -0.0186,-0.75532 -2e-4,-0.24288 -6.3e-4,-0.48577 -0.001,-0.72865 -4.2e-4,-0.22823 -10e-4,-0.45657 0.007,-0.68467 0.0153,-0.28387 0.0444,-0.56807 0.13401,-0.83962 0.0686,-0.2059 0.12913,-0.41778 0.23941,-0.60611 -0.006,0.0357 -0.0236,0.14307 -0.0192,0.10708 0.0197,-0.16132 0.0607,-0.32192 0.11218,-0.47566 0.0459,-0.27885 0.12004,-0.54949 0.19427,-0.82177 0.0544,-0.17428 0.0973,-0.35323 0.17013,-0.52085 0.0572,-0.20928 0.13545,-0.40981 0.20202,-0.61584 0.0547,-0.21324 0.13078,-0.41791 0.20376,-0.62521 0.0383,-0.0528 -3e-5,0.003 0.0446,-0.15672 0.0359,-0.12842 0.09,-0.24947 0.12463,-0.37797 0.0636,-0.19161 0.0968,-0.39694 0.18772,-0.58216 0.0389,-0.0619 0.003,-0.001 0.0555,-0.15888 0.0462,-0.13885 0.10102,-0.27489 0.14741,-0.41367 0.0721,-0.16365 0.11086,-0.33585 0.16157,-0.50652 0.0403,-0.12188 0.0777,-0.20866 0.0691,-0.31099 -4.2e-4,-0.18111 4.3e-4,-0.36263 -0.0155,-0.5432 -0.0195,-0.16912 -0.0643,-0.32957 -0.13955,-0.4834 -0.065,-0.19511 -0.21266,-0.34687 -0.28913,-0.53763 -0.0345,-0.15861 -0.21357,-0.25786 -0.26435,-0.41175 -0.1637,-0.18168 -0.30873,-0.37766 -0.51438,-0.51636 -0.21076,-0.17745 -0.38123,-0.38902 -0.58746,-0.56883 -0.18973,-0.18009 -0.34017,-0.38291 -0.52919,-0.56021 -0.12491,-0.12908 -0.24244,-0.28226 -0.35624,-0.40477 -0.22756,-0.16474 -0.46286,-0.31722 -0.64356,-0.5371 -0.0486,-0.0931 -0.0422,-0.0478 -0.20667,-0.14197 -0.19308,-0.084 -0.38263,-0.17295 -0.56859,-0.26964 -0.1198,-0.0633 -0.23911,-0.12307 -0.37211,-0.15731 -0.16199,-0.0279 -0.31477,-0.0548 -0.48168,-0.0365 -0.15095,0.004 -0.30348,0.007 -0.45079,0.0438 -0.25716,0.0755 -0.49728,0.1993 -0.7523,0.28162 -1.04224,0.44668 -1.67394,-1.02728 -0.6317,-1.47396 z"
       inkscape:connector-curvature="0" />
    <path
       style="fill:#000000;fill-opacity:0;stroke-width:0.08;stroke-miterlimit:4;stroke-dasharray:none"
       id="path4746"
       d="m 156.37351,220.85274 c 0.0385,-0.27354 0.0608,-0.54889 0.0752,-0.82463 0.0251,-0.18764 -0.0179,-0.36561 -0.0446,-0.55041 -0.0414,-0.1775 -0.10406,-0.34325 -0.15505,-0.51832 -0.0287,-0.19195 -0.11005,-0.35986 -0.17977,-0.5375 -0.075,-0.14323 -0.1435,-0.27324 -0.21264,-0.42663 -0.0982,-0.14099 -0.15341,-0.377 -0.21769,-0.56336 -0.0265,-0.12212 -0.0899,-0.22134 -0.14988,-0.33092 -0.10003,-0.20022 -0.19577,-0.32524 -0.30559,-0.51032 0.009,0.0178 0.0444,0.0619 0.0264,0.0534 -0.0897,-0.0424 -0.33548,-0.49932 -0.38949,-0.60718 -0.0808,-0.13685 -0.15871,-0.25752 -0.24422,-0.41406 0.001,0.006 0.007,0.0209 0.003,0.0165 -0.10388,-0.12599 -0.19093,-0.26945 -0.28501,-0.40289 -0.14178,-0.19681 -0.24532,-0.41603 -0.38618,-0.61354 -0.10816,-0.14912 -0.20621,-0.30486 -0.31028,-0.45665 -0.005,-0.007 0.0121,0.0287 0.006,0.0233 -0.0246,-0.0221 -0.0428,-0.0503 -0.0642,-0.0755 -0.11907,-0.0825 -0.19737,-0.22667 -0.31699,-0.30715 -0.13834,-0.14922 -0.28883,-0.28474 -0.43267,-0.42834 -0.13381,-0.1301 -0.26064,-0.26697 -0.39154,-0.39994 -0.17257,-0.14603 -0.30976,-0.32842 -0.4454,-0.50786 -0.089,-0.10804 -0.18559,-0.20522 -0.27985,-0.30836 -0.12051,-0.082 -0.20385,-0.21474 -0.31678,-0.30698 -0.12819,-0.13644 -0.26284,-0.26476 -0.38599,-0.40618 -0.10964,-0.15506 -0.23049,-0.2986 -0.34699,-0.44797 -0.13863,-0.17224 -0.29318,-0.3308 -0.44683,-0.4895 -0.20635,-0.2112 -0.41542,-0.41973 -0.62424,-0.62848 -0.21799,-0.20654 -0.4198,-0.42851 -0.62742,-0.64494 -0.11082,-0.0916 -0.24486,-0.32016 -0.36312,-0.39403 -0.0987,-0.10872 -0.20561,-0.20901 -0.30864,-0.31219 -0.15928,-0.15333 -0.3051,-0.3183 -0.43963,-0.49449 -0.099,-0.12859 -0.20855,-0.24649 -0.31526,-0.36808 -0.10089,-0.10262 -0.20475,-0.20405 -0.30513,-0.30911 -0.1076,-0.10473 -0.21553,-0.21036 -0.32004,-0.31944 -0.11066,-0.0734 -0.20736,-0.1711 -0.31638,-0.25082 -0.1742,-0.13223 -0.30829,-0.3124 -0.47737,-0.44926 -0.12636,-0.1397 -0.24667,-0.23085 -0.34682,-0.30523 -0.15897,-0.10536 -0.30228,-0.23378 -0.44007,-0.36515 -0.11828,-0.10983 -0.23303,-0.2235 -0.3447,-0.3402 -0.10772,-0.10549 -0.21571,-0.21149 -0.32037,-0.32104 -0.0899,-0.0859 -0.17466,-0.17691 -0.26927,-0.25835 -0.1415,-0.13663 -0.27819,-0.27787 -0.42313,-0.41093 -0.14239,-0.14446 -0.28196,-0.29177 -0.43079,-0.42971 -0.11468,-0.10859 -0.25946,-0.28403 -0.36721,-0.36402 -0.14438,-0.10147 -0.2676,-0.23161 -0.40865,-0.33668 -0.15991,-0.13512 -0.30708,-0.28532 -0.45001,-0.43802 -0.15212,-0.10755 -0.28688,-0.23556 -0.41498,-0.3737 -0.0882,-0.0746 -0.18554,-0.17271 -0.29323,-0.25013 -0.13669,-0.13559 -0.15091,-0.12595 -0.32212,-0.24031 -0.15339,-0.12384 -0.30368,-0.25095 -0.46531,-0.36378 -0.1707,-0.15458 -0.33573,-0.34843 -0.45185,-0.45242 -0.13351,-0.0983 -0.254,-0.21484 -0.37974,-0.32319 0.008,0.0242 -0.33134,-0.26492 -0.27312,-0.19794 -0.15729,-0.10735 -0.30032,-0.20353 -0.43145,-0.28837 -0.15217,-0.11707 -0.26476,-0.18191 -0.39949,-0.26187 -0.2081,-0.10957 -0.40862,-0.23044 -0.59889,-0.3686 -0.17221,-0.14932 -0.25234,-0.18734 -0.42222,-0.32731 -0.12638,-0.068 -0.25316,-0.16397 -0.37651,-0.24904 -0.14536,-0.10303 -0.30034,-0.19208 -0.45244,-0.28522 -0.24214,-0.15029 -0.45432,-0.34184 -0.67679,-0.51847 -0.15977,-0.10147 -0.30929,-0.21842 -0.46075,-0.33199 -0.13799,-0.12529 -0.27742,-0.24858 -0.42986,-0.35581 -0.15859,-0.10427 -0.30783,-0.22129 -0.46066,-0.33387 -0.0914,-0.0601 -0.20482,-0.12121 -0.31974,-0.18315 -0.13615,-0.04 -0.24408,-0.15487 -0.38076,-0.19559 -0.13494,-0.0538 -0.32422,-0.18242 -0.42663,-0.23208 -0.18549,-0.089 -0.3722,-0.17407 -0.55733,-0.26309 -0.14911,-0.0707 -0.29866,-0.14014 -0.44879,-0.20873 -0.13992,-0.0397 -0.26519,-0.1295 -0.40797,-0.15796 -0.1801,-0.059 -0.35147,-0.14378 -0.53342,-0.19695 -0.0162,-0.003 -0.0323,-0.007 -0.0484,-0.0102 -1.10078,-0.27217 -0.71587,-1.82891 0.38491,-1.55674 v 0 c 0.0495,0.0128 0.0991,0.0257 0.14865,0.0385 0.16495,0.0539 0.33288,0.11623 0.48997,0.18383 0.22,0.0668 0.42693,0.16075 0.64042,0.2445 0.16866,0.0804 0.33109,0.15346 0.49894,0.23303 0.11482,0.0876 0.28613,0.10813 0.40428,0.19541 0.18905,0.0785 0.34028,0.16701 0.47987,0.25347 0.18865,0.0838 0.35551,0.18681 0.53238,0.26931 0.17394,0.0973 0.34823,0.19471 0.51312,0.30908 0.145,0.11145 0.29127,0.2199 0.44457,0.32181 0.15049,0.11329 0.31744,0.23577 0.43894,0.36258 0.1651,0.12398 0.32854,0.24832 0.50074,0.36299 0.17095,0.1377 0.33551,0.28455 0.51827,0.40656 0.17894,0.11145 0.36274,0.21561 0.53401,0.33921 0.15508,0.11081 0.32464,0.21528 0.48638,0.33404 0.11487,0.10818 0.25262,0.18095 0.36221,0.27901 0.14276,0.0958 0.29666,0.18515 0.45121,0.26798 0.18114,0.11286 0.34176,0.21374 0.47067,0.30736 0.1494,0.0934 0.22185,0.14807 0.33992,0.23082 0.18805,0.11827 0.35463,0.25418 0.53325,0.3868 0.12441,0.11254 0.25146,0.22512 0.38845,0.33102 0.1049,0.0972 0.20078,0.19144 0.29403,0.29834 0.0224,0.0257 0.0546,0.0439 0.0704,0.0741 0.009,0.0163 -0.0312,-0.0194 -0.0469,-0.029 0.1451,0.10693 0.2985,0.21046 0.43062,0.33352 0.004,0.004 -0.01,-0.003 -0.015,-0.004 0.15019,0.10086 0.3105,0.19834 0.4371,0.32494 0.17002,0.14073 0.34304,0.2809 0.49378,0.443 0.10985,0.12488 0.28467,0.21533 0.39586,0.3522 0.0787,0.10924 0.1954,0.1919 0.28841,0.28291 0.11566,0.0988 0.22731,0.19859 0.35381,0.29296 0.17492,0.14239 0.33554,0.30125 0.48875,0.46658 0.14604,0.13674 0.28569,0.28055 0.42462,0.42398 0.13266,0.12284 0.26171,0.25191 0.38797,0.37943 0.13932,0.12189 0.2651,0.25483 0.39764,0.38324 0.10646,0.10664 0.21022,0.21673 0.32022,0.32087 0.10029,0.10007 0.19475,0.20196 0.30103,0.29455 0.0794,0.0708 0.15588,0.14772 0.27315,0.2191 0.15426,0.12734 0.31909,0.24117 0.45233,0.39274 0.13297,0.12364 0.26004,0.25308 0.39221,0.37747 0.17179,0.13793 0.34657,0.27272 0.50546,0.42554 0.10657,0.1064 0.21062,0.21626 0.32078,0.32025 0.062,0.11392 0.26954,0.23463 0.34195,0.35056 0.12366,0.15732 0.27226,0.29573 0.38835,0.45982 0.063,0.10005 0.15584,0.18172 0.23499,0.26661 0.11396,0.10905 0.22462,0.2211 0.33322,0.33526 0.14436,0.14382 0.28277,0.29372 0.41639,0.44759 0.19608,0.20804 0.3911,0.41676 0.59792,0.61466 0.21507,0.21501 0.4304,0.42978 0.64285,0.64739 0.19321,0.19974 0.38635,0.40036 0.55899,0.6185 0.0993,0.12735 0.20528,0.25251 0.29461,0.38426 0.0883,0.10287 0.18721,0.19476 0.27917,0.29425 0.13789,0.13504 0.26854,0.27428 0.41112,0.40467 0.10876,0.14903 0.26683,0.26324 0.36938,0.41879 0.088,0.12751 0.18785,0.24332 0.30629,0.34403 0.12765,0.13517 0.25629,0.26976 0.39002,0.39838 0.111,0.12929 0.25819,0.22621 0.36356,0.36154 0.15663,0.14816 0.306,0.30321 0.45958,0.4547 0.16815,0.19791 0.31131,0.41415 0.45966,0.62706 0.13902,0.20052 0.25492,0.41345 0.38834,0.61664 0.1227,0.18024 0.25592,0.35281 0.37425,0.53627 0.0897,0.16506 0.19686,0.32182 0.28355,0.49114 0.0685,0.20554 0.18257,0.23943 0.30911,0.4504 0.0662,0.15634 0.19962,0.28516 0.26566,0.44395 0.12599,0.21085 0.24375,0.43049 0.31218,0.66776 0.071,0.20576 0.0676,0.28216 0.1756,0.45437 0.0406,0.16943 0.18904,0.312 0.23486,0.48122 0.0828,0.22272 0.18721,0.43867 0.22601,0.67572 0.066,0.24319 0.16207,0.47806 0.19998,0.72897 0.0411,0.28643 0.0901,0.57297 0.0587,0.86353 -0.0173,0.32327 -0.0436,0.64609 -0.089,0.96675 -0.16036,1.12253 -1.74786,0.89575 -1.5875,-0.22678 z"
       inkscape:connector-curvature="0" />
    <path
       style="fill:#000000;fill-opacity:0;stroke-width:0.08;stroke-miterlimit:4;stroke-dasharray:none"
       id="path4748"
       d="m 143.14098,226.05894 c 0.23828,0.26799 0.3962,0.58702 0.51141,0.92333 0.12376,0.38753 0.10387,0.76801 -0.0495,1.14241 -0.1947,0.39362 -0.54228,0.60002 -0.94488,0.72887 -0.31796,0.0839 -0.64106,0.0968 -0.96464,0.0443 -0.62948,-0.18269 -0.95196,-0.58031 -0.67483,-1.31845 0.10263,-0.27336 0.37721,-0.3318 0.60383,-0.4071 0.38919,-0.0689 0.7227,0.0538 1.04014,0.26848 0.29672,0.21119 0.47072,0.45939 0.59128,0.80382 0.0829,0.31482 0.0915,0.64884 -0.0358,0.9543 -0.0308,0.0739 -0.0765,0.14056 -0.11473,0.21084 -0.22443,0.30043 -0.53253,0.48587 -0.87922,0.61085 -0.30417,0.0894 -0.61883,0.10137 -0.93241,0.0776 -0.34588,-0.0448 -0.66637,-0.16953 -0.89103,-0.45153 -0.0556,-0.0698 -0.0916,-0.15318 -0.13733,-0.22977 -0.15558,-0.38126 -0.14999,-0.80573 0.0856,-1.15619 0.0486,-0.0723 0.11202,-0.13341 0.16803,-0.20012 0.27878,-0.25187 0.61504,-0.38385 0.97709,-0.46125 0.26253,-0.0465 0.52965,-0.0499 0.79544,-0.0519 0.28669,-0.001 0.57273,0.0525 0.85022,0.12081 0.21989,0.0648 0.43678,0.13992 0.64936,0.22537 0.23721,0.15503 0.39571,0.22659 0.61866,0.39343 0.25287,0.21576 0.42605,0.47442 0.54217,0.78517 0.13468,0.43772 0.041,0.79457 -0.18362,1.17466 -0.27356,0.35552 -0.66435,0.4669 -1.08972,0.50301 -0.27754,0.02 -0.55244,0.0149 -0.82605,-0.0373 -0.19717,-0.03 -0.38848,-0.081 -0.58065,-0.13315 -0.24064,-0.0822 -0.46565,-0.19208 -0.679,-0.32943 -0.25448,-0.15944 -0.43384,-0.38175 -0.57485,-0.64332 -0.17445,-0.49207 -0.0681,-0.87425 0.25321,-1.26473 0.25471,-0.29275 0.5961,-0.44301 0.96584,-0.52893 0.2975,-0.0546 0.59939,-0.0596 0.89969,-0.0345 0.28327,0.0392 0.55436,0.13789 0.82237,0.23399 0.21112,0.0688 0.41661,0.15724 0.61592,0.25494 0.22796,0.12548 0.42516,0.2924 0.60085,0.48273 0.21276,0.26527 0.37612,0.5993 0.34775,0.94981 -0.008,0.0928 -0.0309,0.18364 -0.0463,0.27547 -0.1888,0.46143 -0.46523,0.68723 -0.93887,0.82751 -0.26365,0.0596 -0.53477,0.0612 -0.80362,0.063 -0.27318,-0.003 -0.527,-0.0961 -0.78566,-0.16967 -0.11752,-0.0256 -0.0402,-0.007 -0.2289,-0.0675 -1.0705,-0.37392 -0.54168,-1.88784 0.52882,-1.51391 v 0 c 0.0455,0.0391 0.005,0.007 0.14905,0.0419 0.0608,0.018 0.15697,0.0562 0.21959,0.0729 0.0412,0.011 0.0901,0.003 0.12507,0.0271 0.005,0.004 -0.0121,0.004 -0.0182,0.006 0.13715,-8.5e-4 0.27432,-0.003 0.41119,-0.0117 -0.14086,0.1182 -0.15743,0.12601 -0.20783,0.31101 -0.005,0.0767 -0.029,0.22312 0.0606,0.26637 -0.0323,-0.0373 -0.20579,-0.18141 -0.11968,-0.12087 -0.14235,-0.0698 -0.29325,-0.13787 -0.45136,-0.18532 -0.15291,-0.0549 -0.3068,-0.11453 -0.46386,-0.15026 -0.1212,-0.007 -0.25618,-0.006 -0.38265,0.01 -0.0584,0.006 -0.0559,-0.0224 -0.10166,0.0263 0.0785,-0.15961 0.0865,-0.32039 -2e-4,-0.4835 -0.035,-0.0466 -0.0349,-0.0517 -0.0804,-0.0904 -0.003,-0.003 -0.0149,-0.008 -0.0117,-0.005 0.2708,0.23698 -0.10293,-0.0838 0.14087,0.11117 -0.1687,-0.0715 0.30951,0.14239 0.18157,0.0938 0.166,0.0465 0.28125,0.0801 0.47044,0.1068 0.0829,0.0198 0.25238,0.0181 0.38571,0.0103 0.21348,-0.0121 -0.0472,0.0415 -0.11232,0.19243 -0.033,0.0758 -0.0488,0.13408 -0.0141,0.24972 0.001,0.004 0.001,-0.009 0.002,-0.0129 0.12086,0.11577 -0.0267,-0.0409 -0.0612,-0.0726 0.28553,0.16107 -0.50541,-0.27096 -0.21302,-0.14125 -0.0557,-0.0561 -0.35396,-0.11038 -0.44387,-0.15298 -0.12816,-0.026 -0.27323,-0.0648 -0.41001,-0.0624 -0.16441,0.001 -0.32946,0.001 -0.49292,0.0209 -0.0369,0.006 -0.0756,0.01 -0.11133,0.021 -0.0419,0.0134 -0.14935,0.0951 -0.0303,-0.0139 0.0903,-0.14498 0.13447,-0.31358 0.0366,-0.46889 -0.0828,-0.10656 -0.16325,-0.17911 -0.29359,-0.22373 -0.0134,-0.005 -0.0558,-0.009 -0.0421,-0.005 0.0373,0.0107 0.0768,0.0128 0.11392,0.0246 -0.11039,0.0228 0.22049,-0.0105 0.24183,-0.008 0.15895,-0.0203 0.13849,-0.14791 0.0225,0.0596 -0.031,0.0857 -0.0472,0.13686 -0.0242,0.20642 0.005,0.0155 -0.008,-0.0414 -4.2e-4,-0.0488 0.0324,0.0475 0.1934,0.21337 0.014,0.0381 -0.008,-0.008 0.0195,0.0109 0.0293,0.0163 -0.0224,-0.0152 -0.063,-0.0188 -0.0674,-0.0456 -0.004,-0.0232 0.0427,0.0197 0.0645,0.0284 0.0112,0.004 -0.0445,-0.0163 -0.0325,-0.0156 0.18462,0.0117 0.0649,0.0388 0.27691,-0.007 0.67484,-0.29683 0.64929,-1.25627 -0.0314,-1.41049 0.01,0.003 0.0294,-0.003 0.0294,0.008 2e-5,0.0101 -0.0394,0.006 -0.0294,0.007 0.0771,0.004 0.15521,-0.0129 0.23186,-0.0182 0.0808,-8.4e-4 -0.0835,0.12171 -0.0775,0.17904 0.027,-0.0494 0.006,-0.0164 -4.2e-4,0.0711 -2.1e-4,0.004 0.003,-0.0128 0.005,-0.01 0.007,0.0105 0.009,0.0482 0.0112,0.0358 0.002,-0.0129 -0.0149,-0.0996 -0.0176,-0.11402 -0.0536,-0.20501 -0.19155,-0.36507 -0.32039,-0.5288 -0.62899,-0.94348 0.7053,-1.83301 1.33429,-0.88953 z"
       inkscape:connector-curvature="0" />
    <path
       style="fill:none;stroke:#000000;stroke-width:0.12706305px;stroke-linecap:butt;stroke-linejoin:miter;stroke-opacity:1"
       d="m 139.79449,213.44925 c 0,0 -0.0756,1.36207 -0.0756,1.36207"
       id="path4877"
       inkscape:connector-curvature="0"
       inkscape:path-effect="#path-effect4879"
       inkscape:original-d="m 139.79449,213.44925 -0.0756,1.36207" />
    <path
       style="fill:none;stroke:#000000;stroke-width:0.12706305px;stroke-linecap:butt;stroke-linejoin:miter;stroke-opacity:1"
       d="m 139.77559,215.18863 c 0,0 -0.0756,1.36207 -0.0756,1.36207"
       id="path4877-2"
       inkscape:connector-curvature="0"
       inkscape:path-effect="#path-effect4879-7"
       inkscape:original-d="m 139.77559,215.18863 -0.0756,1.36207" />
    <path
       style="fill:none;stroke:#000000;stroke-width:0.12706305px;stroke-linecap:butt;stroke-linejoin:miter;stroke-opacity:1"
       d="m 139.7,216.58714 c 0,0 -0.0756,1.36207 -0.0756,1.36207"
       id="path4877-0"
       inkscape:connector-curvature="0"
       inkscape:path-effect="#path-effect4879-4"
       inkscape:original-d="m 139.7,216.58714 -0.0756,1.36207" />
    <path
       style="fill:none;stroke:#000000;stroke-width:0.12706305px;stroke-linecap:butt;stroke-linejoin:miter;stroke-opacity:1"
       d="m 139.7,218.32583 c 0,0 -0.0756,1.36207 -0.0756,1.36207"
       id="path4877-29"
       inkscape:connector-curvature="0"
       inkscape:path-effect="#path-effect4879-6"
       inkscape:original-d="m 139.7,218.32583 -0.0756,1.36207" />
    <path
       style="fill:none;stroke:#000000;stroke-width:0.12706305px;stroke-linecap:butt;stroke-linejoin:miter;stroke-opacity:1"
       d="m 139.6622,219.89443 c 0,0 -0.0756,1.36207 -0.0756,1.36207"
       id="path4877-08"
       inkscape:connector-curvature="0"
       inkscape:path-effect="#path-effect4879-9"
       inkscape:original-d="m 139.6622,219.89443 -0.0756,1.36207" />
    <path
       style="fill:none;stroke:#000000;stroke-width:0.12706305px;stroke-linecap:butt;stroke-linejoin:miter;stroke-opacity:1"
       d="m 147.39181,212.88297 c 0,0 -0.0756,1.36207 -0.0756,1.36207"
       id="path4877-3"
       inkscape:connector-curvature="0"
       inkscape:path-effect="#path-effect4879-1"
       inkscape:original-d="m 147.39181,212.88297 -0.0756,1.36207" />
    <path
       style="fill:none;stroke:#000000;stroke-width:0.12706305px;stroke-linecap:butt;stroke-linejoin:miter;stroke-opacity:1"
       d="m 147.37292,214.67836 c 0,0 -0.0756,1.36207 -0.0756,1.36207"
       id="path4877-03"
       inkscape:connector-curvature="0"
       inkscape:path-effect="#path-effect4879-11"
       inkscape:original-d="m 147.37292,214.67836 -0.0756,1.36207" />
    <path
       style="fill:none;stroke:#000000;stroke-width:0.12706305px;stroke-linecap:butt;stroke-linejoin:miter;stroke-opacity:1"
       d="m 147.37292,216.22806 c 0,0 -0.0756,1.36207 -0.0756,1.36207"
       id="path4877-39"
       inkscape:connector-curvature="0"
       inkscape:path-effect="#path-effect4879-40"
       inkscape:original-d="m 147.37292,216.22806 -0.0756,1.36207" />
    <path
       style="fill:none;stroke:#000000;stroke-width:0.12706305px;stroke-linecap:butt;stroke-linejoin:miter;stroke-opacity:1"
       d="m 147.29732,218.26913 c 0,0 -0.0756,1.36207 -0.0756,1.36207"
       id="path4877-6"
       inkscape:connector-curvature="0"
       inkscape:path-effect="#path-effect4879-19"
       inkscape:original-d="m 147.29732,218.26913 -0.0756,1.36207" />
    <path
       style="fill:none;stroke:#000000;stroke-width:0.12706305px;stroke-linecap:butt;stroke-linejoin:miter;stroke-opacity:1"
       d="m 147.24062,220.15901 c 0,0 -0.0756,1.36207 -0.0756,1.36207"
       id="path4877-38"
       inkscape:connector-curvature="0"
       inkscape:path-effect="#path-effect4879-93"
       inkscape:original-d="m 147.24062,220.15901 -0.0756,1.36207" />
    <path
       style="fill:none;stroke:#000000;stroke-width:0.19453557px;stroke-linecap:butt;stroke-linejoin:miter;stroke-opacity:1"
       d="m 152.58981,218.96255 c 0,0 -0.0995,2.42624 -0.0995,2.42624"
       id="path4877-5"
       inkscape:connector-curvature="0"
       inkscape:path-effect="#path-effect4879-0"
       inkscape:original-d="m 152.58981,218.96255 -0.0995,2.42624" />
    <path
       style="fill:none;stroke:#000000;stroke-width:0.12235446px;stroke-linecap:butt;stroke-linejoin:miter;stroke-opacity:1"
       d="m 152.59504,221.62556 c 0,0 -0.24878,0.38379 -0.24878,0.38379"
       id="path4877-4"
       inkscape:connector-curvature="0"
       inkscape:path-effect="#path-effect4879-66"
       inkscape:original-d="m 152.59504,221.62556 -0.24878,0.38379" />
    <path
       style="fill:none;stroke:#000000;stroke-width:0.19453557px;stroke-linecap:butt;stroke-linejoin:miter;stroke-opacity:1"
       d="m 153.39771,219.16913 c 0,0 -0.0995,2.42624 -0.0995,2.42624"
       id="path4877-5-4"
       inkscape:connector-curvature="0"
       inkscape:path-effect="#path-effect4879-0-0"
       inkscape:original-d="m 153.39771,219.16913 -0.0995,2.42624" />
    <path
       style="fill:none;stroke:#000000;stroke-width:0.12235446px;stroke-linecap:butt;stroke-linejoin:miter;stroke-opacity:1"
       d="m 153.40294,221.83214 c 0,0 -0.24878,0.38379 -0.24878,0.38379"
       id="path4877-4-6"
       inkscape:connector-curvature="0"
       inkscape:path-effect="#path-effect4879-66-0"
       inkscape:original-d="m 153.40294,221.83214 -0.24878,0.38379" />
    <path
       style="fill:none;stroke:#000000;stroke-width:0.12706305px;stroke-linecap:butt;stroke-linejoin:miter;stroke-opacity:1"
       d="m 148.22954,220.66799 c 0,0 -1.06452,0.85309 -1.06452,0.85309"
       id="path4877-38-9"
       inkscape:connector-curvature="0"
       inkscape:path-effect="#path-effect4879-93-6"
       inkscape:original-d="m 148.22954,220.66799 -1.06452,0.85309" />
    <path
       style="fill:none;stroke:#000000;stroke-width:0.12706305px;stroke-linecap:butt;stroke-linejoin:miter;stroke-opacity:1"
       d="m 138.45934,220.48823 c 0,0 1.12726,0.76827 1.12726,0.76827"
       id="path4877-38-9-7"
       inkscape:connector-curvature="0"
       inkscape:path-effect="#path-effect4879-93-6-8"
       inkscape:original-d="m 138.45934,220.48823 1.12726,0.76827" />
    <path
       style="fill:none;stroke:#000000;stroke-width:0.12706305px;stroke-linecap:butt;stroke-linejoin:miter;stroke-opacity:1"
       d="m 148.45871,213.7331 c 0,0 -1.0669,-0.85013 -1.0669,-0.85013"
       id="path4877-38-9-8"
       inkscape:connector-curvature="0"
       inkscape:path-effect="#path-effect4879-93-6-2"
       inkscape:original-d="m 148.45871,213.7331 -1.0669,-0.85013" />
    <path
       style="fill:none;stroke:#000000;stroke-width:0.12706305px;stroke-linecap:butt;stroke-linejoin:miter;stroke-opacity:1"
       d="m 139.79449,213.44925 c 0,0 -1.06452,0.85309 -1.06452,0.85309"
       id="path4877-38-9-9"
       inkscape:connector-curvature="0"
       inkscape:path-effect="#path-effect4879-93-6-29"
       inkscape:original-d="m 139.79449,213.44925 -1.06452,0.85309" />
    <flowRoot
       xml:space="preserve"
       id="flowRoot5072"
       style="font-style:normal;font-weight:normal;font-size:40px;line-height:1.25;font-family:sans-serif;letter-spacing:0px;word-spacing:0px;fill:#000000;fill-opacity:1;stroke:none"><flowRegion
         id="flowRegion5074"><rect
           id="rect5076"
           width="608.11182"
           height="225.26402"
           x="23.233509"
           y="734.62109" /></flowRegion><flowPara
         id="flowPara5078" /></flowRoot>    <flowRoot
       xml:space="preserve"
       id="flowRoot5080"
       style="font-style:normal;font-weight:normal;font-size:40px;line-height:1.25;font-family:sans-serif;letter-spacing:0px;word-spacing:0px;fill:#000000;fill-opacity:1;stroke:none"><flowRegion
         id="flowRegion5082"><rect
           id="rect5084"
           width="241.42645"
           height="95.964493"
           x="439.41635"
           y="970.99677" /></flowRegion><flowPara
         id="flowPara5086" /></flowRoot>  </g>
</svg>
